<svg width="198" height="197" viewBox="0 0 198 197" fill="none" xmlns="http://www.w3.org/2000/svg">
<g clip-path="url(#clip0_166_360)">
<path d="M23.2615 73.5175L40.2916 67.9073C41.4665 67.5136 42.7404 67.5314 43.9039 67.958C45.0674 68.3845 46.0509 69.1943 46.693 70.2542L59.0568 89.6324L108.461 61.6317C113.725 58.6741 119.576 56.9129 125.597 56.4733C131.62 56.0334 137.664 56.9264 143.302 59.088C148.94 61.2495 154.033 64.6268 158.216 68.9801C162.401 73.3329 165.574 78.5546 167.512 84.2733C168.436 87.0786 168.208 90.1364 166.878 92.7734C165.548 95.4105 163.224 97.4115 160.419 98.3356L113.877 113.668L108.805 133.865C107.875 137.474 106.055 140.792 103.51 143.515C100.965 146.237 97.7782 148.278 94.2406 149.451L82.6051 153.284C81.6983 153.574 80.7321 153.628 79.799 153.439C78.8655 153.249 77.9966 152.825 77.2743 152.203C76.5524 151.583 76.0016 150.788 75.6746 149.893C75.3479 148.999 75.2556 148.035 75.4072 147.095L78.6524 125.624L49.458 135.241C46.6526 136.165 43.595 135.937 40.9578 134.607C38.3206 133.277 36.3199 130.953 35.3957 128.148L19.715 80.5487C19.2529 79.146 19.3669 77.6171 20.032 76.2985C20.6971 74.9799 21.8588 73.9796 23.2615 73.5175Z" stroke="#23286B" stroke-width="12.0816" stroke-linecap="round" stroke-linejoin="round"/>
</g>
<defs>
<clipPath id="clip0_166_360">
<rect width="155.916" height="155.916" fill="white" transform="translate(0.456055 48.7845) rotate(-18.2334)"/>
</clipPath>
</defs>
</svg>
